<svg width="14" height="14" viewBox="0 0 14 14" fill="none" xmlns="http://www.w3.org/2000/svg">
<path d="M10.0352 8.58936H9.42732L9.21187 8.3816C9.96596 7.50438 10.42 6.36554 10.42 5.12667C10.42 2.36421 8.18075 0.125 5.41829 0.125C2.65583 0.125 0.416626 2.36421 0.416626 5.12667C0.416626 7.88913 2.65583 10.1283 5.41829 10.1283C6.65717 10.1283 7.79601 9.67434 8.67322 8.92024L8.88099 9.1357V9.74359L12.7284 13.5833L13.875 12.4368L10.0352 8.58936ZM5.41829 8.58936C3.50227 8.58936 1.9556 7.04269 1.9556 5.12667C1.9556 3.21064 3.50227 1.66397 5.41829 1.66397C7.33432 1.66397 8.88099 3.21064 8.88099 5.12667C8.88099 7.04269 7.33432 8.58936 5.41829 8.58936Z" fill="black" fill-opacity="0.54"/>
</svg>
